<svg width="50" height="50" viewBox="0 0 50 50" fill="none" xmlns="http://www.w3.org/2000/svg">
<g clip-path="url(#clip0_78_7)">
<path d="M43.75 14.0623V43.7498C43.75 45.4074 43.0915 46.9971 41.9194 48.1692C40.7473 49.3413 39.1576 49.9998 37.5 49.9998H12.5C10.8424 49.9998 9.25268 49.3413 8.08058 48.1692C6.90848 46.9971 6.25 45.4074 6.25 43.7498V6.24976C6.25 4.59215 6.90848 3.00244 8.08058 1.83034C9.25268 0.658236 10.8424 -0.000244141 12.5 -0.000244141L29.6875 -0.000244141L43.75 14.0623ZM34.375 14.0623C33.1318 14.0623 31.9395 13.5684 31.0604 12.6893C30.1814 11.8102 29.6875 10.618 29.6875 9.37476V3.12476H12.5C11.6712 3.12476 10.8763 3.454 10.2903 4.04005C9.70424 4.6261 9.375 5.42095 9.375 6.24976V43.7498C9.375 44.5786 9.70424 45.3734 10.2903 45.9595C10.8763 46.5455 11.6712 46.8748 12.5 46.8748H37.5C38.3288 46.8748 39.1237 46.5455 39.7097 45.9595C40.2958 45.3734 40.625 44.5786 40.625 43.7498V14.0623H34.375Z" fill="white"/>
<path d="M27.0187 20.7686C27.1639 20.6231 27.3363 20.5077 27.5261 20.4289C27.716 20.3501 27.9195 20.3096 28.125 20.3096C28.3305 20.3096 28.534 20.3501 28.7238 20.4289C28.9137 20.5077 29.0861 20.6231 29.2312 20.7686L35.4812 27.0186C35.6267 27.1638 35.7422 27.3362 35.821 27.526C35.8997 27.7158 35.9403 27.9193 35.9403 28.1249C35.9403 28.3304 35.8997 28.5339 35.821 28.7237C35.7422 28.9135 35.6267 29.086 35.4812 29.2311L29.2312 35.4811C28.9378 35.7745 28.5399 35.9393 28.125 35.9393C27.7101 35.9393 27.3121 35.7745 27.0187 35.4811C26.7253 35.1877 26.5605 34.7898 26.5605 34.3749C26.5605 33.9599 26.7253 33.562 27.0187 33.2686L32.1656 28.1249L27.0187 22.9811C26.8732 22.836 26.7578 22.6635 26.679 22.4737C26.6002 22.2839 26.5597 22.0804 26.5597 21.8749C26.5597 21.6693 26.6002 21.4658 26.679 21.276C26.7578 21.0862 26.8732 20.9138 27.0187 20.7686ZM22.9812 20.7686C22.8361 20.6231 22.6637 20.5077 22.4738 20.4289C22.284 20.3501 22.0805 20.3096 21.875 20.3096C21.6695 20.3096 21.466 20.3501 21.2761 20.4289C21.0863 20.5077 20.9139 20.6231 20.7687 20.7686L14.5187 27.0186C14.3732 27.1638 14.2578 27.3362 14.179 27.526C14.1002 27.7158 14.0597 27.9193 14.0597 28.1249C14.0597 28.3304 14.1002 28.5339 14.179 28.7237C14.2578 28.9135 14.3732 29.086 14.5187 29.2311L20.7687 35.4811C21.0621 35.7745 21.4601 35.9393 21.875 35.9393C22.2899 35.9393 22.6878 35.7745 22.9812 35.4811C23.2746 35.1877 23.4395 34.7898 23.4395 34.3749C23.4395 33.9599 23.2746 33.562 22.9812 33.2686L17.8344 28.1249L22.9812 22.9811C23.1267 22.836 23.2422 22.6635 23.321 22.4737C23.3997 22.2839 23.4403 22.0804 23.4403 21.8749C23.4403 21.6693 23.3997 21.4658 23.321 21.276C23.2422 21.0862 23.1267 20.9138 22.9812 20.7686Z" fill="white"/>
</g>
<defs>
<clipPath id="clip0_78_7">
<rect width="50" height="50" fill="white" transform="translate(0 -0.000244141)"/>
</clipPath>
</defs>
</svg>
