<svg width="159" height="50" viewBox="0 0 159 50" fill="none" xmlns="http://www.w3.org/2000/svg">
<path d="M68.8182 37.3409C67.053 37.3409 65.5265 36.9659 64.2386 36.2159C62.9583 35.4583 61.9697 34.4053 61.2727 33.0568C60.5758 31.7008 60.2273 30.1288 60.2273 28.3409C60.2273 26.5379 60.5758 24.9621 61.2727 23.6136C61.9697 22.2576 62.9583 21.2045 64.2386 20.4545C65.5265 19.697 67.053 19.3182 68.8182 19.3182C70.5833 19.3182 72.1061 19.697 73.3864 20.4545C74.6742 21.2045 75.6667 22.2576 76.3636 23.6136C77.0606 24.9621 77.4091 26.5379 77.4091 28.3409C77.4091 30.1288 77.0606 31.7008 76.3636 33.0568C75.6667 34.4053 74.6742 35.4583 73.3864 36.2159C72.1061 36.9659 70.5833 37.3409 68.8182 37.3409ZM68.8409 33.5909C69.6439 33.5909 70.3144 33.3636 70.8523 32.9091C71.3902 32.447 71.7955 31.8182 72.0682 31.0227C72.3485 30.2273 72.4886 29.322 72.4886 28.3068C72.4886 27.2917 72.3485 26.3864 72.0682 25.5909C71.7955 24.7955 71.3902 24.1667 70.8523 23.7045C70.3144 23.2424 69.6439 23.0114 68.8409 23.0114C68.0303 23.0114 67.3485 23.2424 66.7955 23.7045C66.25 24.1667 65.8371 24.7955 65.5568 25.5909C65.2841 26.3864 65.1477 27.2917 65.1477 28.3068C65.1477 29.322 65.2841 30.2273 65.5568 31.0227C65.8371 31.8182 66.25 32.447 66.7955 32.9091C67.3485 33.3636 68.0303 33.5909 68.8409 33.5909ZM94.3949 37.2841C93.0691 37.2841 91.8684 36.9432 90.7926 36.2614C89.7244 35.572 88.8759 34.5606 88.2472 33.2273C87.6259 31.8864 87.3153 30.2424 87.3153 28.2955C87.3153 26.2955 87.6373 24.6326 88.2812 23.3068C88.9252 21.9735 89.7813 20.9773 90.8494 20.3182C91.9252 19.6515 93.1032 19.3182 94.3835 19.3182C95.3608 19.3182 96.1752 19.4848 96.8267 19.8182C97.4858 20.1439 98.0161 20.553 98.4176 21.0455C98.8267 21.5303 99.1373 22.0076 99.3494 22.4773H99.4972V13.7273H104.327V37H99.554V34.2045H99.3494C99.1222 34.6894 98.8002 35.1705 98.3835 35.6477C97.9744 36.1174 97.4403 36.5076 96.7812 36.8182C96.1297 37.1288 95.3343 37.2841 94.3949 37.2841ZM95.929 33.4318C96.7093 33.4318 97.3684 33.2197 97.9062 32.7955C98.4517 32.3636 98.8684 31.7614 99.1562 30.9886C99.4517 30.2159 99.5994 29.3106 99.5994 28.2727C99.5994 27.2348 99.4555 26.3333 99.1676 25.5682C98.8797 24.803 98.4631 24.2121 97.9176 23.7955C97.3722 23.3788 96.7093 23.1705 95.929 23.1705C95.1335 23.1705 94.4631 23.3864 93.9176 23.8182C93.3722 24.25 92.9593 24.8485 92.679 25.6136C92.3987 26.3788 92.2585 27.2652 92.2585 28.2727C92.2585 29.2879 92.3987 30.1856 92.679 30.9659C92.9669 31.7386 93.3797 32.3447 93.9176 32.7841C94.4631 33.2159 95.1335 33.4318 95.929 33.4318ZM120.69 37.3295C119.577 37.3295 118.584 37.1364 117.713 36.75C116.842 36.3561 116.152 35.7765 115.645 35.0114C115.145 34.2386 114.895 33.2765 114.895 32.125C114.895 31.1553 115.073 30.3409 115.429 29.6818C115.785 29.0227 116.27 28.4924 116.884 28.0909C117.497 27.6894 118.194 27.3864 118.974 27.1818C119.762 26.9773 120.588 26.8333 121.452 26.75C122.467 26.6439 123.285 26.5455 123.906 26.4545C124.527 26.3561 124.978 26.2121 125.259 26.0227C125.539 25.8333 125.679 25.553 125.679 25.1818V25.1136C125.679 24.3939 125.452 23.8371 124.997 23.4432C124.55 23.0492 123.914 22.8523 123.088 22.8523C122.217 22.8523 121.524 23.0455 121.009 23.4318C120.493 23.8106 120.152 24.2879 119.986 24.8636L115.509 24.5C115.736 23.4394 116.183 22.5227 116.849 21.75C117.516 20.9697 118.376 20.3712 119.429 19.9545C120.49 19.5303 121.717 19.3182 123.111 19.3182C124.08 19.3182 125.009 19.4318 125.895 19.6591C126.789 19.8864 127.58 20.2386 128.27 20.7159C128.967 21.1932 129.516 21.8068 129.918 22.5568C130.319 23.2992 130.52 24.1894 130.52 25.2273V37H125.929V34.5795H125.793C125.512 35.125 125.137 35.6061 124.668 36.0227C124.198 36.4318 123.634 36.7538 122.974 36.9886C122.315 37.2159 121.554 37.3295 120.69 37.3295ZM122.077 33.9886C122.789 33.9886 123.418 33.8485 123.963 33.5682C124.509 33.2803 124.937 32.8939 125.247 32.4091C125.558 31.9242 125.713 31.375 125.713 30.7614V28.9091C125.562 29.0076 125.353 29.0985 125.088 29.1818C124.83 29.2576 124.539 29.3295 124.213 29.3977C123.887 29.4583 123.562 29.5152 123.236 29.5682C122.91 29.6136 122.615 29.6553 122.349 29.6932C121.781 29.7765 121.285 29.9091 120.861 30.0909C120.437 30.2727 120.107 30.5189 119.872 30.8295C119.637 31.1326 119.52 31.5114 119.52 31.9659C119.52 32.625 119.759 33.1288 120.236 33.4773C120.721 33.8182 121.334 33.9886 122.077 33.9886Z" fill="black"/>
<rect x="2.5" y="2.5" width="45" height="44.0196" fill="white" stroke="#9847FF" stroke-width="5"/>
<path d="M19.7017 13.7077L24.9062 30.7532H25.0994L30.304 13.7077H36.5994L28.7472 36.9805H21.2585L13.4062 13.7077H19.7017Z" fill="#9847FF"/>
</svg>
